HIERARCHY
ROOT Hips
{
    OFFSET 0.000000 0.000000 0.000000
    CHANNELS 6 Xposition Yposition Zposition Zrotation Xrotation Yrotation
        JOINT Chest
        {
            OFFSET -0.000000 29.391830 -0.000000
            CHANNELS 3 Zrotation Xrotation Yrotation
            JOINT Neck
            {
                OFFSET -0.000000 21.536943 0.000000
                CHANNELS 3 Zrotation Xrotation Yrotation
                JOINT Head
                {
                    OFFSET -0.000000 10.450000 0.000000
                    CHANNELS 3 Zrotation Xrotation Yrotation
                    End Site
                    {
                        OFFSET -0.000000 16.150003 0.000000
                    }
                }
            }
            JOINT LeftCollar
            {
                OFFSET -0.000000 21.536943 0.000000
                CHANNELS 3 Zrotation Xrotation Yrotation
                JOINT LeftShoulder
                {
                    OFFSET 19.500000 -0.000000 0.000000
                    CHANNELS 3 Zrotation Xrotation Yrotation
                    JOINT LeftElbow
                    {
                        OFFSET 20.632557 0.000000 0.000000
                        CHANNELS 3 Zrotation Xrotation Yrotation
                        JOINT LeftWrist
                        {
                            OFFSET 24.683100 0.000000 0.000000
                            CHANNELS 3 Zrotation Xrotation Yrotation
                            End Site
                            {
                                OFFSET 0.000000 -14.250000 0.000000
                            }
                        }
                    }
                }
            }
            JOINT RightCollar
            {
                OFFSET -0.000000 21.536943 0.000000
                CHANNELS 3 Zrotation Xrotation Yrotation
                JOINT RightShoulder
                {
                    OFFSET -19.500000 0.000000 0.000000
                    CHANNELS 3 Zrotation Xrotation Yrotation
                    JOINT RightElbow
                    {
                        OFFSET -20.632557 0.000000 0.000000
                        CHANNELS 3 Zrotation Xrotation Yrotation
                        JOINT RightWrist
                        {
                            OFFSET -24.683100 0.000000 0.000000
                            CHANNELS 3 Zrotation Xrotation Yrotation
                            End Site
                            {
                                OFFSET -0.000000 -14.250000 0.000000
                            }
                        }
                    }
                }
            }
        }
    JOINT LeftHip
    {
        OFFSET 11.400001 0.000000 0.000000
        CHANNELS 3 Zrotation Xrotation Yrotation
        JOINT LeftKnee
        {
            OFFSET -0.000000 -38.134491 0.000000
            CHANNELS 3 Zrotation Xrotation Yrotation
            JOINT LeftAnkle
            {
                OFFSET -0.000000 -39.452507 0.000000
                CHANNELS 3 Zrotation Xrotation Yrotation
                End Site
                {
                    OFFSET -0.000000 -4.750000 16.150003
                }
            }
        }
    }
    JOINT RightHip
    {
        OFFSET -11.400001 0.000000 0.000000
        CHANNELS 3 Zrotation Xrotation Yrotation
        JOINT RightKnee
        {
            OFFSET -0.000000 -38.134491 0.000000
            CHANNELS 3 Zrotation Xrotation Yrotation
            JOINT RightAnkle
            {
                OFFSET -0.000000 -39.452507 0.000000
                CHANNELS 3 Zrotation Xrotation Yrotation
                End Site
                {
                    OFFSET -0.000000 -4.750000 16.150003
                }
            }
        }
    }
}
MOTION
Frames:    5
Frame Time:    0.010000
-33.905495    84.383682    -53.321983    1.246306    2.706728    -78.533386    -0.930138    9.105248    4.175526    -7.551900    3.207698    18.095284    -19.480682    -18.389044    14.688700    -20.448479    -2.028648    11.212699    -38.418758    28.142523    -23.350035    17.578632    -8.654848    -52.258060    118.401390    20.827078    70.316353    25.176058    0.135883    0.733767    -42.391399    56.666058    99.497536    -26.449383    -10.239038    41.573990    -85.411026    -14.803131    -17.339190    13.643367    -21.371563    17.041168    7.756851    17.900694    -15.835561    -9.001853    -8.575285    6.248781    5.495133    -1.742577    -1.097383    -3.495568    21.507339    -5.490573    1.586369    -21.345135    1.672756    
-34.115444    84.387054    -52.967350    1.138496    2.644904    -78.578171    -0.778178    9.123801    4.042892    -7.276813    4.630938    17.039942    -18.524378    -16.831955    13.977869    -20.560310    -1.909956    9.751595    -36.323738    30.518715    -25.545527    17.380768    -8.156188    -49.165760    117.199783    22.519667    74.093147    25.314806    -0.050031    -1.031656    -41.055309    56.650089    97.648705    -26.474430    -10.201778    41.523243    -85.434166    -14.257196    -17.141132    13.650123    -21.355658    17.361610    7.572523    18.462120    -16.425707    -8.775392    -8.671531    6.846674    5.230513    -1.429783    -1.150733    -3.517236    21.491379    -5.300587    2.074062    -21.457838    1.592534    
-34.239750    84.350380    -52.652180    1.199665    2.677890    -78.603050    -0.737714    9.012175    3.949109    -7.391559    4.788785    17.156393    -18.492117    -17.377451    13.997117    -20.611401    -1.816290    9.451802    -36.473495    29.767670    -25.479113    16.906935    -7.564583    -47.971447    115.977615    22.987627    75.719818    25.384071    -0.144091    -1.048459    -40.439072    56.887920    96.732018    -26.188538    -10.080806    41.886463    -83.688255    -14.187926    -16.518698    13.598114    -21.590746    17.031628    7.508719    19.003544    -15.978064    -8.916772    -8.359849    6.546133    5.066988    -1.407104    -1.163066    -3.564810    21.550398    -5.356676    2.407942    -21.524401    1.755556    
-34.367554    84.350220    -52.405254    1.189150    2.653178    -78.642059    -0.730310    9.032248    3.878735    -7.521778    4.893723    17.227810    -18.377502    -17.697165    14.021123    -20.680779    -1.774825    9.542401    -35.861549    29.868780    -26.353956    16.609962    -7.204588    -46.558487    115.007706    23.578236    77.363083    25.381073    -0.183608    -1.049302    -40.124763    57.039749    96.207367    -26.049444    -10.082443    42.038033    -82.820107    -13.994437    -16.109522    13.563835    -21.669283    17.054779    7.435219    19.413769    -16.067141    -8.923653    -8.263529    6.616317    4.888105    -1.289121    -1.167588    -3.585382    21.569319    -5.335258    2.688529    -21.585781    1.817141    
-34.515335    84.353729    -52.122295    1.179973    2.618718    -78.696701    -0.733042    9.054688    3.805826    -7.651635    5.003548    17.300873    -18.260880    -18.044634    14.042562    -20.751488    -1.786731    9.582105    -35.254524    29.917862    -27.189920    16.221207    -6.751296    -45.007103    113.878014    24.153383    79.051483    25.374889    -0.211475    -1.066877    -39.801682    57.181976    95.649925    -25.990963    -10.110420    42.107079    -81.716713    -13.836946    -15.652516    13.518848    -21.757454    17.116856    7.363136    19.883833    -16.192038    -8.940531    -8.151338    6.689614    4.675536    -1.157786    -1.157781    -3.607120    21.593370    -5.325744    3.003697    -21.651405    1.902737    
